<?xml version="1.0" encoding="UTF-8"?>
<mxfile host="app.diagrams.net">
  <diagram id="d1753268687791" name="Page-1">
    <mxGraphModel dx="800" dy="600" grid="1"><root>
      <mxCell id="0"/>
      <mxCell id="1" parent="0"/>
      <mxCell id="table_,FORM_L" style="shape=table;container=1;recursiveResize=0;strokeColor=#000;" vertex="1" parent="1">
        <mxGeometry x="60" y="80" width="200" height="30" as="geometry"/>
      </mxCell>
      <mxCell id="r0" style="shape=tableRow;startSize=0;fillColor=none;" vertex="1" parent="table_,FORM_L">
        <mxGeometry y="0" width="200" height="30" as="geometry"/>
      </mxCell>
      <mxCell id="c1" value="&lt;b&gt;,FORM_L : Units&lt;/b&gt;" style="html=1;verticalAlign=middle;whiteSpace=wrap;overflow=visible;align=center;fillColor=#ADD8E6;strokeColor=none" vertex="1" parent="r0">
        <mxGeometry width="200" height="30" as="geometry"/>
      </mxCell>
      <mxCell id="edge0" style="edgeStyle=orthogonalEdgeStyle;rounded=0;strokeColor=#000;endArrow=classic;endFill=0;" edge="1" source="table_,FORM_L" target="table_Units" parent="1">
        <mxGeometry relative="1" as="geometry"/>
      </mxCell>
    </root></mxGraphModel>
  </diagram>
</mxfile>